<mxfile host="app.diagrams.net" modified="2024-06-02T17:19:31.936Z" agent="Mozilla/5.0 (Windows NT 10.0; Win64; x64) AppleWebKit/537.36 (KHTML, like Gecko) Chrome/125.0.0.0 Safari/537.36 Edg/125.0.0.0" etag="oMs1LVjbOBSXQc8wludD" version="24.4.13" type="google">
  <diagram name="Page-1" id="3s-FVgMP3UqWNlFQKL6T">
    <mxGraphModel grid="1" page="1" gridSize="10" guides="1" tooltips="1" connect="1" arrows="1" fold="1" pageScale="1" pageWidth="1100" pageHeight="1700" math="0" shadow="0">
      <root>
        <mxCell id="0" />
        <mxCell id="1" parent="0" />
        <mxCell id="wM69kSQBvjVR911P5O04-1" value="Kitchen System" style="swimlane;whiteSpace=wrap;html=1;rotation=-90;startSize=20;" vertex="1" parent="1">
          <mxGeometry x="412" y="336" width="277" height="772" as="geometry" />
        </mxCell>
        <mxCell id="wM69kSQBvjVR911P5O04-26" value="YA" style="text;html=1;align=center;verticalAlign=middle;resizable=0;points=[];autosize=1;strokeColor=none;fillColor=none;fontSize=10;" vertex="1" parent="wM69kSQBvjVR911P5O04-1">
          <mxGeometry x="243.01" y="257.01" width="40" height="30" as="geometry" />
        </mxCell>
        <mxCell id="wM69kSQBvjVR911P5O04-27" value="Menerima Detail Pesanan Dari Order System" style="rounded=1;whiteSpace=wrap;html=1;" vertex="1" parent="wM69kSQBvjVR911P5O04-1">
          <mxGeometry x="222" y="287.01" width="120" height="60" as="geometry" />
        </mxCell>
        <mxCell id="wM69kSQBvjVR911P5O04-2" value="Order System" style="swimlane;horizontal=0;whiteSpace=wrap;html=1;startSize=20;" vertex="1" parent="1">
          <mxGeometry x="164" y="244" width="772" height="340" as="geometry" />
        </mxCell>
        <mxCell id="wM69kSQBvjVR911P5O04-3" value="" style="ellipse;whiteSpace=wrap;html=1;aspect=fixed;fillColor=#000000;" vertex="1" parent="wM69kSQBvjVR911P5O04-2">
          <mxGeometry x="40" y="80" width="40" height="40" as="geometry" />
        </mxCell>
        <mxCell id="wM69kSQBvjVR911P5O04-4" value="" style="endArrow=classic;html=1;rounded=0;exitX=1;exitY=0.5;exitDx=0;exitDy=0;entryX=0;entryY=0.5;entryDx=0;entryDy=0;" edge="1" parent="wM69kSQBvjVR911P5O04-2" source="wM69kSQBvjVR911P5O04-3">
          <mxGeometry width="50" height="50" relative="1" as="geometry">
            <mxPoint x="360" y="260" as="sourcePoint" />
            <mxPoint x="120" y="100" as="targetPoint" />
            <Array as="points" />
          </mxGeometry>
        </mxCell>
        <mxCell id="wM69kSQBvjVR911P5O04-7" value="" style="endArrow=classic;html=1;rounded=0;exitX=1;exitY=0.5;exitDx=0;exitDy=0;entryX=0;entryY=0.5;entryDx=0;entryDy=0;" edge="1" parent="wM69kSQBvjVR911P5O04-2" source="wM69kSQBvjVR911P5O04-10">
          <mxGeometry width="50" height="50" relative="1" as="geometry">
            <mxPoint x="250" y="100" as="sourcePoint" />
            <mxPoint x="280" y="100" as="targetPoint" />
            <Array as="points" />
          </mxGeometry>
        </mxCell>
        <mxCell id="wM69kSQBvjVR911P5O04-9" value="" style="endArrow=classic;html=1;rounded=0;exitX=1;exitY=0.5;exitDx=0;exitDy=0;entryX=0;entryY=0.5;entryDx=0;entryDy=0;" edge="1" parent="wM69kSQBvjVR911P5O04-2" source="wM69kSQBvjVR911P5O04-11" target="wM69kSQBvjVR911P5O04-13">
          <mxGeometry width="50" height="50" relative="1" as="geometry">
            <mxPoint x="410" y="100" as="sourcePoint" />
            <mxPoint x="480" y="42.5" as="targetPoint" />
            <Array as="points">
              <mxPoint x="440" y="100" />
              <mxPoint x="440" y="40" />
            </Array>
          </mxGeometry>
        </mxCell>
        <mxCell id="wM69kSQBvjVR911P5O04-10" value="Menampilkan Menu" style="rounded=1;whiteSpace=wrap;html=1;" vertex="1" parent="wM69kSQBvjVR911P5O04-2">
          <mxGeometry x="120" y="70" width="120" height="60" as="geometry" />
        </mxCell>
        <mxCell id="wM69kSQBvjVR911P5O04-11" value="Melakukan Pencarian" style="rounded=1;html=1;whiteSpace=wrap;" vertex="1" parent="wM69kSQBvjVR911P5O04-2">
          <mxGeometry x="280" y="70" width="120" height="60" as="geometry" />
        </mxCell>
        <mxCell id="wM69kSQBvjVR911P5O04-13" value="Menerima Pesanan Customer di dalam Keranjang" style="rounded=1;whiteSpace=wrap;html=1;" vertex="1" parent="wM69kSQBvjVR911P5O04-2">
          <mxGeometry x="470" y="10" width="120" height="60" as="geometry" />
        </mxCell>
        <mxCell id="wM69kSQBvjVR911P5O04-14" value="Menampilkan Harga Total" style="rounded=1;whiteSpace=wrap;html=1;" vertex="1" parent="wM69kSQBvjVR911P5O04-2">
          <mxGeometry x="470" y="110" width="120" height="60" as="geometry" />
        </mxCell>
        <mxCell id="wM69kSQBvjVR911P5O04-16" value="" style="endArrow=classic;html=1;rounded=0;exitX=0.5;exitY=1;exitDx=0;exitDy=0;entryX=0.5;entryY=0;entryDx=0;entryDy=0;" edge="1" parent="wM69kSQBvjVR911P5O04-2" source="wM69kSQBvjVR911P5O04-13" target="wM69kSQBvjVR911P5O04-14">
          <mxGeometry width="50" height="50" relative="1" as="geometry">
            <mxPoint x="250" y="110" as="sourcePoint" />
            <mxPoint x="290" y="110" as="targetPoint" />
            <Array as="points" />
          </mxGeometry>
        </mxCell>
        <mxCell id="wM69kSQBvjVR911P5O04-17" value="Submit?" style="rhombus;whiteSpace=wrap;html=1;" vertex="1" parent="wM69kSQBvjVR911P5O04-2">
          <mxGeometry x="496.25" y="220" width="67.5" height="70" as="geometry" />
        </mxCell>
        <mxCell id="wM69kSQBvjVR911P5O04-18" value="" style="endArrow=classic;html=1;rounded=0;exitX=0.5;exitY=1;exitDx=0;exitDy=0;entryX=0.5;entryY=0;entryDx=0;entryDy=0;" edge="1" parent="wM69kSQBvjVR911P5O04-2" target="wM69kSQBvjVR911P5O04-17">
          <mxGeometry width="50" height="50" relative="1" as="geometry">
            <mxPoint x="529.5" y="170" as="sourcePoint" />
            <mxPoint x="530" y="190" as="targetPoint" />
            <Array as="points" />
          </mxGeometry>
        </mxCell>
        <mxCell id="wM69kSQBvjVR911P5O04-20" value="Menampilkan Form Edit Pesan" style="rounded=1;whiteSpace=wrap;html=1;" vertex="1" parent="wM69kSQBvjVR911P5O04-2">
          <mxGeometry x="280" y="225" width="120" height="60" as="geometry" />
        </mxCell>
        <mxCell id="wM69kSQBvjVR911P5O04-21" value="" style="endArrow=classic;html=1;rounded=0;exitX=0;exitY=0.5;exitDx=0;exitDy=0;entryX=1;entryY=0.5;entryDx=0;entryDy=0;" edge="1" parent="wM69kSQBvjVR911P5O04-2" source="wM69kSQBvjVR911P5O04-17" target="wM69kSQBvjVR911P5O04-20">
          <mxGeometry width="50" height="50" relative="1" as="geometry">
            <mxPoint x="250" y="110" as="sourcePoint" />
            <mxPoint x="410" y="220" as="targetPoint" />
            <Array as="points" />
          </mxGeometry>
        </mxCell>
        <mxCell id="wM69kSQBvjVR911P5O04-22" value="TIDAK" style="text;html=1;align=center;verticalAlign=bottom;resizable=0;points=[];autosize=1;strokeColor=none;fillColor=none;fontSize=10;" vertex="1" parent="wM69kSQBvjVR911P5O04-2">
          <mxGeometry x="420" y="225" width="50" height="30" as="geometry" />
        </mxCell>
        <mxCell id="wM69kSQBvjVR911P5O04-24" value="" style="endArrow=classic;html=1;rounded=0;exitX=0.5;exitY=0;exitDx=0;exitDy=0;entryX=0;entryY=0.5;entryDx=0;entryDy=0;" edge="1" parent="wM69kSQBvjVR911P5O04-2" source="wM69kSQBvjVR911P5O04-20" target="wM69kSQBvjVR911P5O04-14">
          <mxGeometry width="50" height="50" relative="1" as="geometry">
            <mxPoint x="513" y="230" as="sourcePoint" />
            <mxPoint x="410" y="230" as="targetPoint" />
            <Array as="points">
              <mxPoint x="340" y="140" />
            </Array>
          </mxGeometry>
        </mxCell>
        <mxCell id="5OzxsK8boKmwiZCibx3B-2" value="Mengupdate Status Persiapan Pesanan Menjadi &quot;Pesanan sedang disiapkan&quot;" style="rounded=1;whiteSpace=wrap;html=1;" vertex="1" parent="wM69kSQBvjVR911P5O04-2">
          <mxGeometry x="616" y="220" width="127" height="72.99" as="geometry" />
        </mxCell>
        <mxCell id="5OzxsK8boKmwiZCibx3B-28" value="Memberikan Notifikasi Bahwa Pemesanan Telah Selesai" style="rounded=1;whiteSpace=wrap;html=1;" vertex="1" parent="wM69kSQBvjVR911P5O04-2">
          <mxGeometry x="120" y="222.5" width="120" height="65" as="geometry" />
        </mxCell>
        <mxCell id="5OzxsK8boKmwiZCibx3B-29" value="" style="ellipse;whiteSpace=wrap;html=1;aspect=fixed;" vertex="1" parent="wM69kSQBvjVR911P5O04-2">
          <mxGeometry x="40" y="235" width="40" height="40" as="geometry" />
        </mxCell>
        <mxCell id="5OzxsK8boKmwiZCibx3B-30" value="" style="endArrow=classic;html=1;rounded=0;exitX=0;exitY=0.5;exitDx=0;exitDy=0;entryX=1;entryY=0.5;entryDx=0;entryDy=0;" edge="1" parent="wM69kSQBvjVR911P5O04-2" source="5OzxsK8boKmwiZCibx3B-28" target="5OzxsK8boKmwiZCibx3B-29">
          <mxGeometry width="50" height="50" relative="1" as="geometry">
            <mxPoint x="250" y="110" as="sourcePoint" />
            <mxPoint x="290" y="110" as="targetPoint" />
            <Array as="points" />
          </mxGeometry>
        </mxCell>
        <mxCell id="wM69kSQBvjVR911P5O04-25" value="" style="endArrow=classic;html=1;rounded=0;exitX=0.5;exitY=1;exitDx=0;exitDy=0;entryX=0.5;entryY=0;entryDx=0;entryDy=0;" edge="1" parent="1" source="wM69kSQBvjVR911P5O04-17" target="wM69kSQBvjVR911P5O04-27">
          <mxGeometry width="50" height="50" relative="1" as="geometry">
            <mxPoint x="553" y="310" as="sourcePoint" />
            <mxPoint x="570" y="320" as="targetPoint" />
            <Array as="points" />
          </mxGeometry>
        </mxCell>
        <mxCell id="wM69kSQBvjVR911P5O04-28" value="Delivery System For Customer" style="swimlane;whiteSpace=wrap;html=1;rotation=-90;startSize=20;" vertex="1" parent="1">
          <mxGeometry x="412" y="613" width="277" height="772" as="geometry" />
        </mxCell>
        <mxCell id="5OzxsK8boKmwiZCibx3B-5" value="Menerima Status Pemesanan Telah Selesai Dari Dapur" style="rounded=1;whiteSpace=wrap;html=1;" vertex="1" parent="wM69kSQBvjVR911P5O04-28">
          <mxGeometry x="388" y="349.51" width="127" height="72.99" as="geometry" />
        </mxCell>
        <mxCell id="5OzxsK8boKmwiZCibx3B-7" value="Mengirimkan Notifikasi Kepada Pelanggan Tentang Status Pesanan Dan Perkiraan Waktu Pengiriman" style="rounded=1;whiteSpace=wrap;html=1;" vertex="1" parent="wM69kSQBvjVR911P5O04-28">
          <mxGeometry x="-32" y="277" width="145" height="103" as="geometry" />
        </mxCell>
        <mxCell id="5OzxsK8boKmwiZCibx3B-8" value="" style="endArrow=classic;html=1;rounded=0;exitX=0;exitY=0.5;exitDx=0;exitDy=0;entryX=1;entryY=0.5;entryDx=0;entryDy=0;" edge="1" parent="wM69kSQBvjVR911P5O04-28" source="5OzxsK8boKmwiZCibx3B-5" target="5OzxsK8boKmwiZCibx3B-9">
          <mxGeometry width="50" height="50" relative="1" as="geometry">
            <mxPoint x="368" y="347" as="sourcePoint" />
            <mxPoint x="318" y="333" as="targetPoint" />
            <Array as="points" />
          </mxGeometry>
        </mxCell>
        <mxCell id="5OzxsK8boKmwiZCibx3B-9" value="Mencari Dan Mengirimkan Pemberitahuan Kepada Driver" style="rounded=1;whiteSpace=wrap;html=1;" vertex="1" parent="wM69kSQBvjVR911P5O04-28">
          <mxGeometry x="208" y="349.51" width="127" height="72.99" as="geometry" />
        </mxCell>
        <mxCell id="5OzxsK8boKmwiZCibx3B-13" value="" style="rhombus;whiteSpace=wrap;html=1;" vertex="1" parent="wM69kSQBvjVR911P5O04-28">
          <mxGeometry x="148" y="368" width="32" height="36" as="geometry" />
        </mxCell>
        <mxCell id="5OzxsK8boKmwiZCibx3B-10" value="" style="endArrow=classic;html=1;rounded=0;entryX=1;entryY=0.5;entryDx=0;entryDy=0;" edge="1" parent="wM69kSQBvjVR911P5O04-28" target="5OzxsK8boKmwiZCibx3B-7">
          <mxGeometry width="50" height="50" relative="1" as="geometry">
            <mxPoint x="164" y="367" as="sourcePoint" />
            <mxPoint x="153" y="332.99" as="targetPoint" />
            <Array as="points">
              <mxPoint x="164" y="329" />
            </Array>
          </mxGeometry>
        </mxCell>
        <mxCell id="5OzxsK8boKmwiZCibx3B-18" value="Mengupdate Status Persiapan Pesanan Menjadi &quot;Pesanan Sedang Dalam Pengiriman&quot;" style="rounded=1;whiteSpace=wrap;html=1;" vertex="1" parent="wM69kSQBvjVR911P5O04-28">
          <mxGeometry x="-26.5" y="397" width="134" height="86" as="geometry" />
        </mxCell>
        <mxCell id="5OzxsK8boKmwiZCibx3B-22" value="" style="endArrow=classic;html=1;rounded=0;exitX=0;exitY=0.5;exitDx=0;exitDy=0;entryX=1;entryY=0.5;entryDx=0;entryDy=0;" edge="1" parent="wM69kSQBvjVR911P5O04-28" source="5OzxsK8boKmwiZCibx3B-9" target="5OzxsK8boKmwiZCibx3B-13">
          <mxGeometry width="50" height="50" relative="1" as="geometry">
            <mxPoint x="351" y="640" as="sourcePoint" />
            <mxPoint x="351" y="667" as="targetPoint" />
            <Array as="points" />
          </mxGeometry>
        </mxCell>
        <mxCell id="wM69kSQBvjVR911P5O04-31" value="Driver Customer" style="swimlane;whiteSpace=wrap;html=1;rotation=-90;startSize=20;" vertex="1" parent="1">
          <mxGeometry x="412" y="890" width="277" height="772" as="geometry" />
        </mxCell>
        <mxCell id="5OzxsK8boKmwiZCibx3B-11" value="Menerima Pemberitahuan Pesanan Yang Harus Diambil" style="rounded=1;whiteSpace=wrap;html=1;" vertex="1" parent="wM69kSQBvjVR911P5O04-31">
          <mxGeometry x="100.5" y="280" width="127" height="72.99" as="geometry" />
        </mxCell>
        <mxCell id="5OzxsK8boKmwiZCibx3B-15" value="Menampilkan Alat Navigasi Untuk Memberikan Rute Tercepat" style="rounded=1;whiteSpace=wrap;html=1;" vertex="1" parent="wM69kSQBvjVR911P5O04-31">
          <mxGeometry x="277" y="280" width="127" height="72.99" as="geometry" />
        </mxCell>
        <mxCell id="5OzxsK8boKmwiZCibx3B-16" value="" style="endArrow=classic;html=1;rounded=0;exitX=1;exitY=0.5;exitDx=0;exitDy=0;entryX=0;entryY=0.5;entryDx=0;entryDy=0;" edge="1" parent="wM69kSQBvjVR911P5O04-31" source="5OzxsK8boKmwiZCibx3B-11" target="5OzxsK8boKmwiZCibx3B-15">
          <mxGeometry width="50" height="50" relative="1" as="geometry">
            <mxPoint x="398" y="119" as="sourcePoint" />
            <mxPoint x="345" y="119" as="targetPoint" />
            <Array as="points" />
          </mxGeometry>
        </mxCell>
        <mxCell id="5OzxsK8boKmwiZCibx3B-19" value="" style="rhombus;whiteSpace=wrap;html=1;" vertex="1" parent="wM69kSQBvjVR911P5O04-31">
          <mxGeometry x="324.5" y="380" width="32" height="36" as="geometry" />
        </mxCell>
        <mxCell id="5OzxsK8boKmwiZCibx3B-21" value="" style="endArrow=classic;html=1;rounded=0;exitX=0.5;exitY=1;exitDx=0;exitDy=0;entryX=0.5;entryY=0;entryDx=0;entryDy=0;" edge="1" parent="wM69kSQBvjVR911P5O04-31" source="5OzxsK8boKmwiZCibx3B-15" target="5OzxsK8boKmwiZCibx3B-19">
          <mxGeometry width="50" height="50" relative="1" as="geometry">
            <mxPoint x="238" y="326" as="sourcePoint" />
            <mxPoint x="287" y="326" as="targetPoint" />
            <Array as="points" />
          </mxGeometry>
        </mxCell>
        <mxCell id="5OzxsK8boKmwiZCibx3B-23" value="Menyelesaikan Pengiriman Untuk Merubah Status Pesanan Pada Order System" style="rounded=1;whiteSpace=wrap;html=1;" vertex="1" parent="wM69kSQBvjVR911P5O04-31">
          <mxGeometry x="277" y="440" width="127" height="72.99" as="geometry" />
        </mxCell>
        <mxCell id="5OzxsK8boKmwiZCibx3B-24" value="" style="endArrow=classic;html=1;rounded=0;exitX=0.5;exitY=1;exitDx=0;exitDy=0;entryX=0.5;entryY=0;entryDx=0;entryDy=0;" edge="1" parent="wM69kSQBvjVR911P5O04-31" source="5OzxsK8boKmwiZCibx3B-19" target="5OzxsK8boKmwiZCibx3B-23">
          <mxGeometry width="50" height="50" relative="1" as="geometry">
            <mxPoint x="351" y="363" as="sourcePoint" />
            <mxPoint x="351" y="390" as="targetPoint" />
            <Array as="points" />
          </mxGeometry>
        </mxCell>
        <mxCell id="5OzxsK8boKmwiZCibx3B-1" value="" style="endArrow=classic;html=1;rounded=0;exitX=1;exitY=0.5;exitDx=0;exitDy=0;entryX=0.25;entryY=1;entryDx=0;entryDy=0;" edge="1" parent="1" source="wM69kSQBvjVR911P5O04-27" target="5OzxsK8boKmwiZCibx3B-2">
          <mxGeometry width="50" height="50" relative="1" as="geometry">
            <mxPoint x="686.5" y="684" as="sourcePoint" />
            <mxPoint x="687" y="714" as="targetPoint" />
            <Array as="points">
              <mxPoint x="812" y="653" />
            </Array>
          </mxGeometry>
        </mxCell>
        <mxCell id="5OzxsK8boKmwiZCibx3B-6" value="" style="endArrow=classic;html=1;rounded=0;exitX=0.75;exitY=1;exitDx=0;exitDy=0;entryX=0.58;entryY=-0.046;entryDx=0;entryDy=0;entryPerimeter=0;" edge="1" parent="1" source="5OzxsK8boKmwiZCibx3B-2" target="5OzxsK8boKmwiZCibx3B-5">
          <mxGeometry width="50" height="50" relative="1" as="geometry">
            <mxPoint x="870" y="544" as="sourcePoint" />
            <mxPoint x="870" y="633" as="targetPoint" />
            <Array as="points" />
          </mxGeometry>
        </mxCell>
        <mxCell id="5OzxsK8boKmwiZCibx3B-12" value="" style="endArrow=classic;html=1;rounded=0;exitX=0.5;exitY=1;exitDx=0;exitDy=0;entryX=0.5;entryY=0;entryDx=0;entryDy=0;" edge="1" parent="1" source="5OzxsK8boKmwiZCibx3B-13" target="5OzxsK8boKmwiZCibx3B-11">
          <mxGeometry width="50" height="50" relative="1" as="geometry">
            <mxPoint x="810" y="1009" as="sourcePoint" />
            <mxPoint x="757" y="1009" as="targetPoint" />
            <Array as="points" />
          </mxGeometry>
        </mxCell>
        <mxCell id="5OzxsK8boKmwiZCibx3B-17" value="" style="endArrow=classic;html=1;rounded=0;exitX=0;exitY=0.5;exitDx=0;exitDy=0;entryX=0.5;entryY=1;entryDx=0;entryDy=0;" edge="1" parent="1" source="5OzxsK8boKmwiZCibx3B-19" target="5OzxsK8boKmwiZCibx3B-18">
          <mxGeometry width="50" height="50" relative="1" as="geometry">
            <mxPoint x="810" y="1009" as="sourcePoint" />
            <mxPoint x="440" y="1100" as="targetPoint" />
            <Array as="points">
              <mxPoint x="453" y="1288" />
            </Array>
          </mxGeometry>
        </mxCell>
        <mxCell id="5OzxsK8boKmwiZCibx3B-26" value="" style="endArrow=classic;html=1;rounded=0;exitX=0;exitY=0.5;exitDx=0;exitDy=0;entryX=0.5;entryY=1;entryDx=0;entryDy=0;" edge="1" parent="1" source="5OzxsK8boKmwiZCibx3B-23" target="5OzxsK8boKmwiZCibx3B-28">
          <mxGeometry width="50" height="50" relative="1" as="geometry">
            <mxPoint x="650" y="1216" as="sourcePoint" />
            <mxPoint x="350" y="530" as="targetPoint" />
            <Array as="points">
              <mxPoint x="344" y="1370" />
            </Array>
          </mxGeometry>
        </mxCell>
      </root>
    </mxGraphModel>
  </diagram>
</mxfile>
